<svg width="47" height="36" viewBox="0 0 47 36" fill="none" xmlns="http://www.w3.org/2000/svg">
<path d="M2.84407 23.0929C4.54544 23.4371 5.41728 22.3311 6.1424 21.0642C6.75749 19.992 7.34154 18.8973 7.91148 17.7997C8.48143 16.7022 8.50964 15.6074 7.6378 14.6481C6.73774 13.6606 5.60632 13.2712 4.27739 13.5844C1.99762 14.1233 0.0761805 16.5075 0 19.0355C0.005643 19.1569 0.0028215 19.4277 0.039501 19.693C0.256756 21.3633 1.41075 22.8051 2.84407 23.0957V23.0929Z" fill="#6A45FF"/>
<path d="M14.0433 12.405C16.1792 11.8463 18.284 11.1635 20.307 10.2634C21.7093 9.63989 22.4768 8.54797 22.6122 7.25572C22.7279 5.43585 21.9435 4.03357 20.4566 3.14762C16.5544 0.817058 10.3641 3.56238 9.46965 8.01752C8.88278 10.9462 11.1626 13.1611 14.0433 12.405Z" fill="#6A45FF"/>
<path d="M39.3659 19.7226C39.6029 21.2039 40.0233 22.6767 40.5312 24.0931C41.3635 26.4124 43.8352 26.9005 45.576 25.154C46.5495 24.1806 46.8993 22.9589 46.9106 21.8924C46.8796 19.4038 45.466 17.2961 43.5022 16.5315C41.1745 15.6258 38.9737 17.2679 39.3659 19.7226Z" fill="#6A45FF"/>
<path d="M39.1567 2.42399C39.7154 4.63322 39.5348 6.13144 38.8323 8.54382C38.6912 9.02629 38.6686 9.44388 38.8182 9.94046C39.2216 11.2637 39.2216 12.5955 38.615 13.8821C37.9971 15.1913 36.8403 15.3408 35.9346 14.2235C35.2885 13.425 34.3687 13.3714 33.5899 14.1078C33.2147 14.4633 32.8027 14.5508 32.3569 14.342C31.3835 13.8906 30.4186 13.425 29.4649 12.9397C28.9373 12.6717 28.7708 12.2315 28.9034 11.6362C29.084 10.8236 28.6551 10.2988 27.8397 10.2678C26.3048 10.2085 25.7349 9.24637 26.4346 7.89487C27.0158 6.77756 27.93 5.99883 29.0558 5.49378C29.527 5.28216 29.8345 4.97462 30.1223 4.57397C31.5274 2.61867 32.4134 1.53803 34.5859 0.409435C36.4735 -0.569625 38.6094 0.248609 39.1596 2.42116L39.1567 2.42399ZM34.0893 4.2241C32.989 4.57679 32.4331 5.67717 32.8084 6.76627C33.1611 7.79894 34.2643 8.35196 35.2941 8.0162C36.3296 7.68044 36.9165 6.58288 36.6118 5.55867C36.2873 4.46675 35.1728 3.87706 34.0922 4.22692L34.0893 4.2241Z" fill="#6A45FF"/>
<path d="M15.4988 14.8888C19.3388 13.2862 22.9757 12.9899 26.7227 14.237C27.8964 14.6264 28.362 16.04 27.6594 17.0585C25.9468 19.5386 22.925 23.8386 20.9894 26.1833C19.1018 28.4715 17.2735 30.8246 14.9119 32.6445C14.1049 33.2652 13.2246 33.7421 12.2202 33.9565C10.4285 34.3374 8.87671 33.5446 7.90047 31.7416C6.46433 29.0838 6.42765 26.3272 7.3531 23.5959C8.76103 19.4286 11.6869 16.6974 15.5044 14.8916L15.4988 14.8888Z" fill="#6A45FF"/>
<path d="M37.9156 29.581C38.1442 28.5625 38.2373 27.5354 38.2006 26.5197C38.195 26.4012 38.1809 26.2827 38.1555 26.167C37.4614 23.0097 35.9632 19.8751 33.2771 17.6066L33.2573 17.5896C32.267 16.7545 30.7631 16.9802 30.0465 18.058C26.2798 23.7123 23.1056 28.3593 19.8665 33.1164C19.0257 34.3494 19.9229 36.0197 21.4155 35.9999H21.4578C21.9403 35.9943 22.3974 35.7968 22.7388 35.4582C24.127 34.0813 25.8819 32.6141 27.6341 31.9172C29.8123 31.051 31.9425 31.6379 33.2066 33.2349C33.8781 34.0841 35.1139 34.1913 35.8842 33.4324C36.8265 32.5013 37.5488 31.2513 37.9213 29.5782L37.9156 29.581Z" fill="#6A45FF"/>
</svg>
