<svg width="106" height="24" viewBox="0 0 106 24" fill="none" xmlns="http://www.w3.org/2000/svg">
<g clip-path="url(#clip0_35_11102)">
<path d="M1.89309 15.3926C3.02557 15.622 3.60589 14.8847 4.08855 14.0401C4.49797 13.3253 4.88673 12.5955 5.2661 11.8638C5.64547 11.132 5.66425 10.4022 5.08393 9.76265C4.48483 9.1043 3.73172 8.84471 2.84715 9.05351C1.32967 9.41278 0.0507078 11.0022 0 12.6876C0.00375614 12.7685 0.00187807 12.9491 0.0262929 13.1259C0.170904 14.2395 0.939034 15.2007 1.89309 15.3944V15.3926Z" fill="white"/>
<path d="M9.34726 8.26729C10.769 7.89485 12.17 7.43964 13.5166 6.8396C14.45 6.42389 14.9608 5.69593 15.051 4.83442C15.128 3.62116 14.6059 2.68629 13.6161 2.09565C11.0187 0.541925 6.89826 2.37216 6.30292 5.3423C5.91228 7.2948 7.42976 8.77141 9.34726 8.26729Z" fill="white"/>
<path d="M26.2032 13.1467C26.361 14.1342 26.6408 15.1161 26.9789 16.0604C27.5329 17.6066 29.1781 17.932 30.3368 16.7676C30.9848 16.1187 31.2177 15.3042 31.2252 14.5932C31.2045 12.9341 30.2636 11.529 28.9565 11.0192C27.4071 10.4154 25.9422 11.5102 26.2032 13.1467Z" fill="white"/>
<path d="M26.0636 1.61406C26.4355 3.0869 26.3153 4.08573 25.8477 5.694C25.7537 6.01566 25.7387 6.29405 25.8383 6.62511C26.1068 7.50731 26.1068 8.39515 25.703 9.2529C25.2917 10.1257 24.5217 10.2254 23.9189 9.48051C23.4888 8.94818 22.8765 8.91244 22.3582 9.40339C22.1084 9.64039 21.8342 9.69871 21.5375 9.55951C20.8896 9.25855 20.2473 8.94818 19.6125 8.62464C19.2613 8.44594 19.1505 8.1525 19.2387 7.75561C19.3589 7.21387 19.0735 6.864 18.5307 6.84331C17.509 6.80381 17.1297 6.16238 17.5954 5.26137C17.9823 4.51648 18.5908 3.99732 19.3401 3.66061C19.6538 3.51954 19.8585 3.31451 20.0501 3.0474C20.9853 1.74385 21.575 1.02342 23.0212 0.271007C24.2776 -0.381709 25.6993 0.163789 26.0655 1.61218L26.0636 1.61406ZM22.6906 2.81415C21.9582 3.04928 21.5882 3.78288 21.838 4.50896C22.0727 5.19741 22.8071 5.56609 23.4926 5.34225C24.1818 5.11841 24.5724 4.38669 24.3696 3.70388C24.1536 2.97592 23.4118 2.58279 22.6925 2.81603L22.6906 2.81415Z" fill="white"/>
<path d="M10.3159 9.92442C12.872 8.85599 15.2928 8.65849 17.7869 9.4899C18.5681 9.74948 18.878 10.6919 18.4104 11.3709C17.2704 13.0243 15.259 15.891 13.9706 17.4542C12.7142 18.9797 11.4972 20.5484 9.92527 21.7617C9.38814 22.1755 8.80219 22.4934 8.1336 22.6364C6.94102 22.8903 5.90809 22.3618 5.25827 21.1598C4.30234 19.3879 4.27792 17.5501 4.89393 15.7293C5.83108 12.951 7.77864 11.1302 10.3197 9.9263L10.3159 9.92442Z" fill="white"/>
<path d="M25.2372 19.7188C25.3893 19.0398 25.4513 18.3551 25.4269 17.6779C25.4231 17.5989 25.4137 17.5199 25.3968 17.4428C24.9348 15.3379 23.9375 13.2481 22.1496 11.7358L22.1365 11.7245C21.4773 11.1677 20.4763 11.3182 19.9992 12.0367C17.492 15.8063 15.3792 18.9044 13.2232 22.0758C12.6635 22.8978 13.2607 24.0113 14.2542 23.9982H14.2824C14.6036 23.9944 14.9078 23.8627 15.135 23.637C16.0591 22.7191 17.2272 21.7409 18.3935 21.2763C19.8434 20.6989 21.2613 21.0901 22.1027 22.1548C22.5497 22.721 23.3723 22.7924 23.885 22.2864C24.5122 21.6657 24.993 20.8324 25.2409 19.717L25.2372 19.7188Z" fill="white"/>
<path d="M42.7973 22.2112H41.3211V21.408C41.3023 21.4268 41.2836 21.4419 41.2629 21.4513C41.2441 21.4701 41.2291 21.4833 41.2197 21.487C41.2103 21.4927 41.2009 21.4983 41.1915 21.5077C40.5323 21.9761 39.7961 22.2112 38.9848 22.2112C37.9444 22.2112 37.0448 21.8426 36.2917 21.1052C35.5367 20.3791 35.1592 19.4894 35.1592 18.436C35.1592 17.3826 35.5367 16.4986 36.2917 15.7518C37.0466 15.0144 37.9444 14.6458 38.9848 14.6458C40.0253 14.6458 40.9098 15.0144 41.6648 15.7518C42.4198 16.4986 42.7973 17.392 42.7973 18.436V22.2112ZM40.5624 20.0292C40.9925 19.5891 41.2066 19.0586 41.2066 18.436C41.2066 17.8134 40.9925 17.2792 40.5624 16.8296C40.1323 16.3707 39.6064 16.1412 38.9867 16.1412C38.3669 16.1412 37.826 16.3707 37.396 16.8296C36.9659 17.2792 36.7518 17.8153 36.7518 18.436C36.7518 19.0568 36.9659 19.5891 37.396 20.0292C37.826 20.4788 38.3556 20.7045 38.9867 20.7045C39.6177 20.7045 40.1323 20.4788 40.5624 20.0292Z" fill="white"/>
<path d="M47.2242 17.6762C47.5397 17.6762 47.8327 17.7383 48.105 17.8624C48.3773 17.9866 48.614 18.1521 48.8149 18.3572C49.0159 18.5622 49.1755 18.803 49.2957 19.0738C49.4159 19.3466 49.4741 19.6363 49.4741 19.9429C49.4741 20.2495 49.414 20.5523 49.2957 20.8251C49.1755 21.0978 49.0159 21.3367 48.8149 21.5417C48.614 21.7468 48.3773 21.9104 48.105 22.0289C47.8327 22.1493 47.5397 22.2076 47.2242 22.2076H43.6427V20.716H47.2674C47.4684 20.6972 47.6374 20.6125 47.7764 20.4658C47.9153 20.3172 47.9848 20.1423 47.9848 19.941C47.9848 19.7397 47.9116 19.5516 47.7632 19.403C47.6148 19.2544 47.4364 19.181 47.2261 19.181H45.8213C45.5152 19.1716 45.2259 19.1077 44.9536 18.9873C44.6813 18.8688 44.4447 18.7051 44.2437 18.5001C44.0428 18.2951 43.885 18.0543 43.7704 17.7834C43.6559 17.5107 43.5977 17.221 43.5977 16.9144C43.5977 16.6078 43.6578 16.305 43.7761 16.0322C43.8963 15.7595 44.0559 15.5206 44.2569 15.3155C44.4578 15.1105 44.6944 14.9469 44.9668 14.8284C45.2391 14.7099 45.5321 14.6497 45.8476 14.6497H49.1736V16.1413H45.8476C45.6372 16.1507 45.4588 16.2297 45.3105 16.3783C45.1621 16.5269 45.0888 16.7056 45.0888 16.9163C45.0888 17.127 45.1621 17.3057 45.3105 17.4543C45.4588 17.6029 45.6372 17.6762 45.8476 17.6762H47.2223H47.2242Z" fill="white"/>
<path d="M103.35 17.6762C103.666 17.6762 103.959 17.7383 104.231 17.8624C104.503 17.9866 104.74 18.1521 104.941 18.3572C105.142 18.5622 105.301 18.803 105.422 19.0738C105.542 19.3466 105.6 19.6363 105.6 19.9429C105.6 20.2495 105.54 20.5523 105.422 20.8251C105.301 21.0978 105.142 21.3367 104.941 21.5417C104.74 21.7468 104.503 21.9104 104.231 22.0289C103.959 22.1493 103.666 22.2076 103.35 22.2076H99.7687V20.716H103.393C103.594 20.6972 103.763 20.6125 103.902 20.4658C104.041 20.3172 104.111 20.1423 104.111 19.941C104.111 19.7397 104.038 19.5516 103.889 19.403C103.741 19.2544 103.562 19.181 103.352 19.181H101.947C101.641 19.1716 101.352 19.1077 101.08 18.9873C100.807 18.8688 100.571 18.7051 100.37 18.5001C100.169 18.2951 100.011 18.0543 99.8964 17.7834C99.7818 17.5107 99.7236 17.221 99.7236 16.9144C99.7236 16.6078 99.7837 16.305 99.9021 16.0322C100.022 15.7595 100.182 15.5206 100.383 15.3155C100.584 15.1105 100.82 14.9469 101.093 14.8284C101.365 14.7099 101.658 14.6497 101.974 14.6497H105.3V16.1413H101.974C101.763 16.1507 101.585 16.2297 101.436 16.3783C101.288 16.5269 101.215 16.7056 101.215 16.9163C101.215 17.127 101.288 17.3057 101.436 17.4543C101.585 17.6029 101.763 17.6762 101.974 17.6762H103.348H103.35Z" fill="white"/>
<path d="M54.7191 20.7045V22.2112H53.7875C52.7471 22.2112 51.8475 21.8426 51.0944 21.1052C50.3394 20.3791 49.9619 19.4894 49.9619 18.436V12.9961H51.5526V14.6175H54.0148V16.1242H51.5526V18.4341C51.5526 18.7502 51.6202 19.0436 51.7536 19.3163C51.8869 19.5891 52.0635 19.8355 52.2832 20.0556C52.5029 20.2757 52.7321 20.4337 52.9706 20.5296C53.2091 20.6255 53.487 20.682 53.8026 20.7027H54.7191V20.7045Z" fill="white"/>
<path d="M99.0657 20.7045V22.2112H98.1342C97.0938 22.2112 96.1942 21.8426 95.4411 21.1052C94.6861 20.3791 94.3086 19.4894 94.3086 18.436V12.9961H95.8993V14.6175H98.3615V16.1242H95.8993V18.4341C95.8993 18.7502 95.9669 19.0436 96.1003 19.3163C96.2336 19.5891 96.4102 19.8355 96.6299 20.0556C96.8496 20.2757 97.0787 20.4337 97.3173 20.5296C97.5558 20.6255 97.8337 20.682 98.1492 20.7027H99.0657V20.7045Z" fill="white"/>
<path d="M57.6138 16.8166C57.1837 17.2662 56.9696 17.7966 56.9696 18.4098V22.2133H55.3789V18.4098C55.3789 17.3771 55.7564 16.4874 56.5114 15.7407C57.2476 15.0127 58.1453 14.6497 59.2045 14.6497H60.2356V16.1413H59.2045C58.5735 16.1413 58.0439 16.367 57.6138 16.8166Z" fill="white"/>
<path d="M66.7537 15.7537C67.5087 16.5005 67.8862 17.394 67.8862 18.438C67.8862 19.4819 67.5087 20.3811 66.7537 21.1071C65.9988 21.8445 65.1011 22.2132 64.0606 22.2132C63.0202 22.2132 62.1318 21.8445 61.3675 21.1071C60.6219 20.3811 60.25 19.4913 60.25 18.438C60.25 17.3846 60.6219 16.5005 61.3675 15.7537C62.1318 15.0164 63.0295 14.6477 64.0606 14.6477C65.0917 14.6477 65.9988 15.0164 66.7537 15.7537ZM65.6494 20.0444C66.0795 19.6042 66.2936 19.0681 66.2936 18.4361C66.2936 17.8041 66.0795 17.2793 65.6494 16.8297C65.21 16.3801 64.6804 16.1544 64.0587 16.1544C63.4371 16.1544 62.9018 16.3801 62.483 16.8297C62.0529 17.2793 61.8388 17.8154 61.8388 18.4361C61.8388 19.0568 62.0529 19.6042 62.483 20.0444C62.9131 20.4845 63.439 20.7046 64.0587 20.7046C64.6785 20.7046 65.21 20.4845 65.6494 20.0444Z" fill="white"/>
<path d="M74.649 18.438C74.649 17.836 74.4293 17.3 73.9898 16.8316C73.5691 16.382 73.0433 16.1563 72.4141 16.1563C71.785 16.1563 71.2572 16.382 70.8384 16.8316C70.3989 17.2717 70.1792 17.8078 70.1792 18.438V22.2132H68.6035V18.438C68.6035 17.3959 68.9754 16.5005 69.721 15.7537C70.4759 15.0164 71.3737 14.6477 72.4141 14.6477C73.4546 14.6477 74.3523 15.0164 75.1073 15.7537C75.8529 16.5005 76.2247 17.394 76.2247 18.438V22.2132H74.649V18.438Z" fill="white"/>
<path d="M84.6801 22.2112H83.2039V21.408C83.1852 21.4268 83.1664 21.4419 83.1457 21.4513C83.1269 21.4701 83.1119 21.4833 83.1025 21.487C83.0931 21.4927 83.0837 21.4983 83.0743 21.5077C82.4151 21.9761 81.6789 22.2112 80.8676 22.2112C79.8272 22.2112 78.9276 21.8426 78.1745 21.1052C77.4195 20.3791 77.042 19.4894 77.042 18.436C77.042 17.3826 77.4195 16.4986 78.1745 15.7518C78.9295 15.0144 79.8272 14.6458 80.8676 14.6458C81.9081 14.6458 82.7926 15.0144 83.5476 15.7518C84.3026 16.4986 84.6801 17.392 84.6801 18.436V22.2112ZM82.4452 20.0292C82.8753 19.5891 83.0894 19.0586 83.0894 18.436C83.0894 17.8134 82.8753 17.2792 82.4452 16.8296C82.0151 16.3707 81.4893 16.1412 80.8695 16.1412C80.2497 16.1412 79.7088 16.3707 79.2788 16.8296C78.8487 17.2792 78.6346 17.8153 78.6346 18.436C78.6346 19.0568 78.8487 19.5891 79.2788 20.0292C79.7088 20.4788 80.2385 20.7045 80.8695 20.7045C81.5005 20.7045 82.0151 20.4788 82.4452 20.0292Z" fill="white"/>
<path d="M87.2586 18.4229C87.2586 19.0549 87.4727 19.591 87.9028 20.0312C88.3423 20.4808 88.8681 20.7065 89.4785 20.7065C90.0889 20.7065 90.6485 20.4808 91.0692 20.0312C91.4993 19.591 91.7134 19.0549 91.7134 18.4229V14.6477H93.3041V18.4229C93.3041 19.465 92.9323 20.3604 92.1867 21.1071C91.4223 21.8445 90.5189 22.2132 89.4785 22.2132C88.438 22.2132 87.5535 21.8445 86.7985 21.1071C86.0435 20.351 85.666 19.4575 85.666 18.4229V14.6477H87.2567V18.4229H87.2586Z" fill="white"/>
<path d="M77.6415 4.18164H75.8799V12.161H77.6415V4.18164Z" fill="white"/>
<path d="M52.4414 6.66089V7.01452V7.58259V12.161H54.203V7.58259V7.01452V6.66089H52.4414Z" fill="white"/>
<path d="M52.4414 4.18164V4.26817V4.40548V5.51717H54.203V4.40548V4.26817V4.18164H52.4414Z" fill="white"/>
<path d="M42.7973 12.1609H41.3211V11.3577C41.3023 11.3766 41.2836 11.3916 41.2629 11.401C41.2441 11.4198 41.2291 11.433 41.2197 11.4367C41.2103 11.4424 41.2009 11.448 41.1915 11.4574C40.5323 11.9258 39.7961 12.1609 38.9848 12.1609C37.9444 12.1609 37.0448 11.7923 36.2917 11.0549C35.5367 10.3288 35.1592 9.4391 35.1592 8.38573C35.1592 7.33235 35.5367 6.44827 36.2917 5.7015C37.0466 4.96414 37.9444 4.59546 38.9848 4.59546C40.0253 4.59546 40.9098 4.96414 41.6648 5.7015C42.4198 6.44827 42.7973 7.34176 42.7973 8.38573V12.1609ZM40.5624 9.97895C40.9925 9.53879 41.2066 9.00834 41.2066 8.38573C41.2066 7.76311 40.9925 7.22889 40.5624 6.77933C40.1323 6.32036 39.6064 6.09087 38.9867 6.09087C38.3669 6.09087 37.826 6.32036 37.396 6.77933C36.9659 7.22889 36.7518 7.76499 36.7518 8.38573C36.7518 9.00646 36.9659 9.53879 37.396 9.97895C37.826 10.4285 38.3556 10.6542 38.9867 10.6542C39.6177 10.6542 40.1323 10.4285 40.5624 9.97895Z" fill="white"/>
<path d="M74.2758 12.1609H72.7996V11.3577C72.7809 11.3766 72.7621 11.3916 72.7414 11.401C72.7226 11.4198 72.7076 11.433 72.6982 11.4367C72.6888 11.4424 72.6794 11.448 72.67 11.4574C72.0108 11.9258 71.2746 12.1609 70.4633 12.1609C69.4229 12.1609 68.5233 11.7923 67.7702 11.0549C67.0152 10.3288 66.6377 9.4391 66.6377 8.38573C66.6377 7.33235 67.0152 6.44827 67.7702 5.7015C68.5252 4.96414 69.4229 4.59546 70.4633 4.59546C71.5038 4.59546 72.3883 4.96414 73.1433 5.7015C73.8983 6.44827 74.2758 7.34176 74.2758 8.38573V12.1609ZM72.0409 9.97895C72.471 9.53879 72.6851 9.00834 72.6851 8.38573C72.6851 7.76311 72.471 7.22889 72.0409 6.77933C71.6108 6.32036 71.085 6.09087 70.4652 6.09087C69.8454 6.09087 69.3046 6.32036 68.8745 6.77933C68.4444 7.22889 68.2303 7.76499 68.2303 8.38573C68.2303 9.00646 68.4444 9.53879 68.8745 9.97895C69.3046 10.4285 69.8342 10.6542 70.4652 10.6542C71.0962 10.6542 71.6108 10.4285 72.0409 9.97895Z" fill="white"/>
<path d="M49.9751 8.38768C49.9751 7.78575 49.7554 7.24966 49.3159 6.78128C48.8952 6.33172 48.3694 6.10599 47.7402 6.10599C47.1111 6.10599 46.5833 6.33172 46.1645 6.78128C45.725 7.22144 45.5053 7.75753 45.5053 8.38768V12.1121C45.5053 12.1403 45.4828 12.1629 45.4546 12.1629H43.9784C43.9503 12.1629 43.9277 12.1403 43.9277 12.1121V8.38768C43.9277 7.34559 44.2996 6.45022 45.0452 5.70345C45.8002 4.96609 46.6979 4.59741 47.7383 4.59741C48.7788 4.59741 49.6765 4.96609 50.4315 5.70345C51.1771 6.45022 51.5489 7.34371 51.5489 8.38768V14.2245C51.5489 14.2527 51.5264 14.2753 51.4982 14.2753H50.0221C49.9939 14.2753 49.9714 14.2527 49.9714 14.2245V8.38768H49.9751Z" fill="white"/>
<path d="M64.1454 12.161C64.1135 12.161 64.0891 12.1347 64.0891 12.1046V7.54122C64.0891 7.35876 64.0478 7.1857 63.967 7.01641C63.8863 6.849 63.7811 6.70604 63.6515 6.58566C63.5219 6.46527 63.3698 6.37122 63.1932 6.29786C63.0167 6.22638 62.8364 6.19064 62.6561 6.19064C62.2843 6.19064 61.9687 6.32231 61.7096 6.58566C61.4523 6.849 61.3227 7.16689 61.3227 7.53934V12.1027C61.3227 12.1347 61.2964 12.1591 61.2663 12.1591H59.7338C59.7019 12.1591 59.6775 12.1328 59.6775 12.1027V7.53934C59.6775 7.16689 59.5517 6.849 59.2981 6.58566C59.0446 6.32231 58.7328 6.19064 58.3591 6.19064C58.1675 6.19064 57.9872 6.22638 57.8145 6.29786C57.6417 6.36934 57.4896 6.46527 57.3562 6.58566C57.2229 6.70604 57.1139 6.849 57.0332 7.01641C56.9524 7.18382 56.9111 7.35876 56.9111 7.54122V12.1046C56.9111 12.1366 56.8848 12.161 56.8548 12.161H55.3786C55.3467 12.161 55.3223 12.1347 55.3223 12.1046V7.54122C55.3223 7.13868 55.403 6.75871 55.5664 6.39943C55.7279 6.04016 55.9514 5.72791 56.2331 5.45892C56.5148 5.19182 56.8397 4.98114 57.2078 4.8269C57.5759 4.67453 57.9609 4.59741 58.361 4.59741C58.7911 4.59741 59.1892 4.68206 59.5573 4.84759C59.9066 5.00748 60.2109 5.22003 60.4701 5.48714C60.4926 5.50971 60.5264 5.50971 60.5489 5.48714C60.8081 5.22003 61.1123 5.00559 61.4617 4.84759C61.8298 4.68018 62.2279 4.59741 62.658 4.59741C63.0486 4.59741 63.4242 4.67077 63.783 4.81937C64.1417 4.96797 64.4591 5.17112 64.7351 5.42883C65.0112 5.68653 65.2347 5.98937 65.4019 6.3336C65.569 6.67783 65.6629 7.04651 65.6817 7.43964V12.1046C65.6817 12.1366 65.6554 12.161 65.6253 12.161H64.1492H64.1454Z" fill="white"/>
</g>
<defs>
<clipPath id="clip0_35_11102">
<rect width="105.6" height="24" fill="white"/>
</clipPath>
</defs>
</svg>
