<svg width="221" height="50" viewBox="0 0 221 50" fill="none" xmlns="http://www.w3.org/2000/svg">
<g clip-path="url(#clip0_35_5796)">
<path d="M3.95015 32.0683C6.31319 32.5464 7.5241 31.0102 8.53123 29.2507C9.38553 27.7615 10.1967 26.241 10.9883 24.7166C11.7799 23.1922 11.8191 21.6717 10.6082 20.3393C9.3581 18.9677 7.78666 18.4269 5.9409 18.8619C2.77451 19.6104 0.105808 22.9218 0 26.433C0.0078376 26.6016 0.0039188 26.9778 0.0548632 27.3461C0.356611 29.6661 1.9594 31.6686 3.95015 32.0722V32.0683Z" fill="#6A45FF"/>
<path d="M19.5041 17.224C22.4706 16.4481 25.394 15.4997 28.2038 14.2496C30.1515 13.3836 31.2174 11.867 31.4055 10.0722C31.5662 7.54454 30.4767 5.59689 28.4115 4.36639C22.9918 1.12946 14.394 4.94245 13.1517 11.1302C12.3366 15.198 15.503 18.2742 19.5041 17.224Z" fill="#6A45FF"/>
<path d="M54.6752 27.3889C55.0044 29.4463 55.5883 31.4919 56.2936 33.4592C57.4497 36.6804 60.8826 37.3584 63.3005 34.9326C64.6524 33.5806 65.1384 31.8838 65.154 30.4025C65.1109 26.9461 63.1476 24.0188 60.4201 22.9568C57.1871 21.6988 54.1305 23.9796 54.6752 27.3889Z" fill="#6A45FF"/>
<path d="M54.3851 3.36279C55.161 6.43121 54.9102 8.51209 53.9345 11.8627C53.7385 12.5328 53.7072 13.1128 53.9149 13.8025C54.4752 15.6404 54.4752 17.4901 53.6327 19.277C52.7745 21.0954 51.1678 21.3031 49.9098 19.7512C49.0124 18.6422 47.7349 18.5677 46.6533 19.5905C46.1321 20.0843 45.56 20.2058 44.9408 19.9158C43.5888 19.2888 42.2486 18.6422 40.924 17.9682C40.1912 17.5959 39.96 16.9845 40.1442 16.1577C40.395 15.0291 39.7993 14.3002 38.6668 14.2571C36.535 14.1748 35.7434 12.8385 36.7152 10.9613C37.5225 9.4095 38.7922 8.32791 40.3558 7.62644C41.0102 7.33253 41.4374 6.90538 41.8371 6.34891C43.7887 3.63318 45.0192 2.13228 48.0366 0.564761C50.6583 -0.795063 53.6249 0.341389 54.389 3.35887L54.3851 3.36279ZM47.3469 5.86298C45.8186 6.35283 45.0466 7.88117 45.5678 9.39382C46.0577 10.8281 47.5899 11.5962 49.0203 11.1299C50.4585 10.6635 51.2736 9.1391 50.8503 7.71658C50.3997 6.2 48.8518 5.38097 47.3509 5.8669L47.3469 5.86298Z" fill="#6A45FF"/>
<path d="M21.5262 20.676C26.8597 18.4501 31.911 18.0386 37.1152 19.7707C38.7454 20.3115 39.392 22.2749 38.4162 23.6895C36.0375 27.1342 31.8405 33.1064 29.1522 36.363C26.5305 39.5411 23.9911 42.8094 20.7111 45.337C19.5903 46.1992 18.3676 46.8614 16.9725 47.1593C14.4841 47.6883 12.3287 46.5871 10.9728 44.083C8.97817 40.3915 8.92723 36.5628 10.2126 32.7694C12.1681 26.9813 16.2319 23.1879 21.534 20.6799L21.5262 20.676Z" fill="#6A45FF"/>
<path d="M52.661 41.0812C52.9784 39.6666 53.1078 38.2401 53.0568 36.8293C53.049 36.6648 53.0294 36.5002 52.9941 36.3395C52.0301 31.9544 49.9492 27.6006 46.2185 24.4498L46.1911 24.4263C44.8156 23.2664 42.7269 23.5799 41.7315 25.0769C36.4999 32.9301 32.0912 39.3844 27.5924 45.9915C26.4246 47.704 27.6708 50.0239 29.7439 49.9965H29.8026C30.4728 49.9887 31.1076 49.7144 31.5818 49.2441C33.5098 47.3317 35.9473 45.294 38.3809 44.326C41.4062 43.1229 44.3649 43.938 46.1205 46.1561C47.0532 47.3356 48.7696 47.4846 49.8395 46.4304C51.1484 45.1372 52.1516 43.4012 52.6689 41.0773L52.661 41.0812Z" fill="#6A45FF"/>
<path d="M89.3015 46.2741H86.2214V44.6008C86.1822 44.64 86.143 44.6713 86.0999 44.6909C86.0607 44.7301 86.0293 44.7575 86.0097 44.7654C85.9901 44.7771 85.9706 44.7889 85.951 44.8085C84.5755 45.7843 83.0393 46.2741 81.3464 46.2741C79.1754 46.2741 77.2982 45.506 75.7268 43.9699C74.1514 42.4572 73.3638 40.6036 73.3638 38.4091C73.3638 36.2146 74.1514 34.3727 75.7268 32.817C77.3022 31.2808 79.1754 30.5127 81.3464 30.5127C83.5174 30.5127 85.3631 31.2808 86.9385 32.817C88.5139 34.3727 89.3015 36.2341 89.3015 38.4091V46.2741ZM84.6382 41.7283C85.5356 40.8113 85.9823 39.7062 85.9823 38.4091C85.9823 37.112 85.5356 35.999 84.6382 35.0624C83.7408 34.1062 82.6435 33.6281 81.3503 33.6281C80.0571 33.6281 78.9285 34.1062 78.0311 35.0624C77.1337 35.999 76.6869 37.1159 76.6869 38.4091C76.6869 39.7023 77.1337 40.8113 78.0311 41.7283C78.9285 42.6649 80.0336 43.1352 81.3503 43.1352C82.667 43.1352 83.7408 42.6649 84.6382 41.7283Z" fill="white"/>
<path d="M98.5379 36.8259C99.1963 36.8259 99.8076 36.9552 100.376 37.2138C100.944 37.4725 101.438 37.8173 101.857 38.2445C102.276 38.6716 102.61 39.1732 102.86 39.7375C103.111 40.3058 103.233 40.9093 103.233 41.548C103.233 42.1868 103.107 42.8177 102.86 43.3859C102.61 43.9542 102.276 44.4518 101.857 44.879C101.438 45.3061 100.944 45.6471 100.376 45.894C99.8076 46.1448 99.1963 46.2663 98.5379 46.2663H91.0648V43.1586H98.628C99.0474 43.1195 99.4 42.9431 99.69 42.6374C99.98 42.3279 100.125 41.9634 100.125 41.5441C100.125 41.1248 99.9722 40.7329 99.6626 40.4233C99.353 40.1137 98.9807 39.9609 98.5418 39.9609H95.6106C94.9718 39.9413 94.3683 39.8081 93.8001 39.5573C93.2319 39.3104 92.7381 38.9694 92.3188 38.5423C91.8995 38.1151 91.5703 37.6135 91.3312 37.0492C91.0922 36.481 90.9707 35.8775 90.9707 35.2387C90.9707 34.6 91.0961 33.9691 91.343 33.4008C91.5938 32.8326 91.9269 32.3349 92.3462 31.9078C92.7655 31.4806 93.2593 31.1397 93.8275 30.8928C94.3957 30.6459 95.0071 30.5205 95.6654 30.5205H102.606V33.6281H95.6654C95.2265 33.6477 94.8542 33.8123 94.5446 34.1219C94.2351 34.4315 94.0822 34.8038 94.0822 35.2427C94.0822 35.6816 94.2351 36.0539 94.5446 36.3634C94.8542 36.673 95.2265 36.8259 95.6654 36.8259H98.534H98.5379Z" fill="white"/>
<path d="M215.652 36.8259C216.31 36.8259 216.921 36.9552 217.49 37.2138C218.058 37.4725 218.552 37.8173 218.971 38.2445C219.39 38.6716 219.723 39.1732 219.974 39.7375C220.225 40.3058 220.346 40.9093 220.346 41.548C220.346 42.1868 220.221 42.8177 219.974 43.3859C219.723 43.9542 219.39 44.4518 218.971 44.879C218.552 45.3061 218.058 45.6471 217.49 45.894C216.921 46.1448 216.31 46.2663 215.652 46.2663H208.179V43.1586H215.742C216.161 43.1195 216.514 42.9431 216.804 42.6374C217.094 42.3279 217.239 41.9634 217.239 41.5441C217.239 41.1248 217.086 40.7329 216.776 40.4233C216.467 40.1137 216.095 39.9609 215.656 39.9609H212.724C212.086 39.9413 211.482 39.8081 210.914 39.5573C210.346 39.3104 209.852 38.9694 209.433 38.5423C209.013 38.1151 208.684 37.6135 208.445 37.0492C208.206 36.481 208.084 35.8775 208.084 35.2387C208.084 34.6 208.21 33.9691 208.457 33.4008C208.708 32.8326 209.041 32.3349 209.46 31.9078C209.879 31.4806 210.373 31.1397 210.941 30.8928C211.51 30.6459 212.121 30.5205 212.779 30.5205H219.719V33.6281H212.779C212.34 33.6477 211.968 33.8123 211.658 34.1219C211.349 34.4315 211.196 34.8038 211.196 35.2427C211.196 35.6816 211.349 36.0539 211.658 36.3634C211.968 36.673 212.34 36.8259 212.779 36.8259H215.648H215.652Z" fill="white"/>
<path d="M114.178 43.1344V46.2734H112.235C110.064 46.2734 108.186 45.5053 106.615 43.9692C105.04 42.4565 104.252 40.6029 104.252 38.4084V27.0752H107.571V30.4532H112.709V33.5922H107.571V38.4045C107.571 39.0628 107.712 39.6741 107.99 40.2424C108.269 40.8106 108.637 41.324 109.096 41.7825C109.554 42.241 110.032 42.5701 110.53 42.77C111.028 42.9699 111.608 43.0874 112.266 43.1305H114.178V43.1344Z" fill="white"/>
<path d="M206.713 43.1344V46.2734H204.769C202.598 46.2734 200.721 45.5053 199.15 43.9692C197.574 42.4565 196.787 40.6029 196.787 38.4084V27.0752H200.106V30.4532H205.243V33.5922H200.106V38.4045C200.106 39.0628 200.247 39.6741 200.525 40.2424C200.803 40.8106 201.172 41.324 201.63 41.7825C202.089 42.241 202.567 42.5701 203.065 42.77C203.562 42.9699 204.142 43.0874 204.801 43.1305H206.713V43.1344Z" fill="white"/>
<path d="M120.217 35.035C119.32 35.9716 118.873 37.0767 118.873 38.3542V46.278H115.554V38.3542C115.554 36.2028 116.341 34.3492 117.917 32.7934C119.453 31.2768 121.326 30.5205 123.536 30.5205H125.688V33.6281H123.536C122.22 33.6281 121.114 34.0984 120.217 35.035Z" fill="white"/>
<path d="M139.29 32.8209C140.865 34.3766 141.653 36.2381 141.653 38.413C141.653 40.5879 140.865 42.4611 139.29 43.9738C137.714 45.5099 135.841 46.278 133.67 46.278C131.499 46.278 129.645 45.5099 128.05 43.9738C126.495 42.4611 125.719 40.6075 125.719 38.413C125.719 36.2185 126.495 34.3766 128.05 32.8209C129.645 31.2847 131.519 30.5166 133.67 30.5166C135.821 30.5166 137.714 31.2847 139.29 32.8209ZM136.985 41.7596C137.883 40.8426 138.329 39.7258 138.329 38.4091C138.329 37.0924 137.883 35.999 136.985 35.0624C136.068 34.1258 134.963 33.6556 133.666 33.6556C132.369 33.6556 131.252 34.1258 130.378 35.0624C129.481 35.999 129.034 37.1159 129.034 38.4091C129.034 39.7023 129.481 40.8426 130.378 41.7596C131.276 42.6766 132.373 43.1351 133.666 43.1351C134.959 43.1351 136.068 42.6766 136.985 41.7596Z" fill="white"/>
<path d="M155.765 38.413C155.765 37.159 155.306 36.0421 154.389 35.0663C153.511 34.1297 152.414 33.6595 151.101 33.6595C149.788 33.6595 148.687 34.1297 147.813 35.0663C146.896 35.9833 146.438 37.1002 146.438 38.413V46.278H143.15V38.413C143.15 36.242 143.926 34.3766 145.482 32.8209C147.057 31.2847 148.93 30.5166 151.101 30.5166C153.272 30.5166 155.145 31.2847 156.721 32.8209C158.276 34.3766 159.052 36.2381 159.052 38.413V46.278H155.765V38.413Z" fill="white"/>
<path d="M176.695 46.2741H173.614V44.6008C173.575 44.64 173.536 44.6713 173.493 44.6909C173.454 44.7301 173.422 44.7575 173.403 44.7654C173.383 44.7771 173.364 44.7889 173.344 44.8085C171.969 45.7843 170.432 46.2741 168.739 46.2741C166.568 46.2741 164.691 45.506 163.12 43.9699C161.545 42.4572 160.757 40.6036 160.757 38.4091C160.757 36.2146 161.545 34.3727 163.12 32.817C164.695 31.2808 166.568 30.5127 168.739 30.5127C170.91 30.5127 172.756 31.2808 174.332 32.817C175.907 34.3727 176.695 36.2341 176.695 38.4091V46.2741ZM172.031 41.7283C172.929 40.8113 173.375 39.7062 173.375 38.4091C173.375 37.112 172.929 35.999 172.031 35.0624C171.134 34.1062 170.037 33.6281 168.743 33.6281C167.45 33.6281 166.322 34.1062 165.424 35.0624C164.527 35.999 164.08 37.1159 164.08 38.4091C164.08 39.7023 164.527 40.8113 165.424 41.7283C166.322 42.6649 167.427 43.1352 168.743 43.1352C170.06 43.1352 171.134 42.6649 172.031 41.7283Z" fill="white"/>
<path d="M182.075 38.3816C182.075 39.6984 182.522 40.8152 183.419 41.7322C184.336 42.6688 185.434 43.1391 186.707 43.1391C187.981 43.1391 189.149 42.6688 190.026 41.7322C190.924 40.8152 191.37 39.6984 191.37 38.3816V30.5166H194.69V38.3816C194.69 40.5527 193.914 42.418 192.358 43.9738C190.763 45.5099 188.878 46.278 186.707 46.278C184.536 46.278 182.69 45.5099 181.115 43.9738C179.54 42.3984 178.752 40.537 178.752 38.3816V30.5166H182.071V38.3816H182.075Z" fill="white"/>
<path d="M162.007 8.71191H158.331V25.3355H162.007V8.71191Z" fill="white"/>
<path d="M109.425 13.877V14.6137V15.7972V25.3355H113.101V15.7972V14.6137V13.877H109.425Z" fill="white"/>
<path d="M109.425 8.71191V8.89218V9.17825V11.4943H113.101V9.17825V8.89218V8.71191H109.425Z" fill="white"/>
<path d="M89.3015 25.3356H86.2214V23.6623C86.1822 23.7015 86.143 23.7329 86.0999 23.7524C86.0607 23.7916 86.0293 23.8191 86.0097 23.8269C85.9901 23.8387 85.9706 23.8504 85.951 23.87C84.5755 24.8458 83.0393 25.3356 81.3464 25.3356C79.1754 25.3356 77.2982 24.5676 75.7268 23.0314C74.1514 21.5187 73.3638 19.6651 73.3638 17.4706C73.3638 15.2761 74.1514 13.4342 75.7268 11.8785C77.3022 10.3423 79.1754 9.57422 81.3464 9.57422C83.5174 9.57422 85.3631 10.3423 86.9385 11.8785C88.5139 13.4342 89.3015 15.2957 89.3015 17.4706V25.3356ZM84.6382 20.7898C85.5356 19.8728 85.9823 18.7677 85.9823 17.4706C85.9823 16.1735 85.5356 15.0605 84.6382 14.1239C83.7408 13.1678 82.6435 12.6897 81.3503 12.6897C80.0571 12.6897 78.9285 13.1678 78.0311 14.1239C77.1337 15.0605 76.6869 16.1774 76.6869 17.4706C76.6869 18.7638 77.1337 19.8728 78.0311 20.7898C78.9285 21.7264 80.0336 22.1967 81.3503 22.1967C82.667 22.1967 83.7408 21.7264 84.6382 20.7898Z" fill="white"/>
<path d="M154.985 25.3356H151.904V23.6623C151.865 23.7015 151.826 23.7329 151.783 23.7524C151.744 23.7916 151.712 23.8191 151.693 23.8269C151.673 23.8387 151.654 23.8504 151.634 23.87C150.259 24.8458 148.722 25.3356 147.029 25.3356C144.858 25.3356 142.981 24.5676 141.41 23.0314C139.835 21.5187 139.047 19.6651 139.047 17.4706C139.047 15.2761 139.835 13.4342 141.41 11.8785C142.985 10.3423 144.858 9.57422 147.029 9.57422C149.2 9.57422 151.046 10.3423 152.622 11.8785C154.197 13.4342 154.985 15.2957 154.985 17.4706V25.3356ZM150.321 20.7898C151.219 19.8728 151.665 18.7677 151.665 17.4706C151.665 16.1735 151.219 15.0605 150.321 14.1239C149.424 13.1678 148.327 12.6897 147.033 12.6897C145.74 12.6897 144.612 13.1678 143.714 14.1239C142.817 15.0605 142.37 16.1774 142.37 17.4706C142.37 18.7638 142.817 19.8728 143.714 20.7898C144.612 21.7264 145.717 22.1967 147.033 22.1967C148.35 22.1967 149.424 21.7264 150.321 20.7898Z" fill="white"/>
<path d="M104.279 17.4745C104.279 16.2205 103.821 15.1036 102.904 14.1279C102.026 13.1913 100.929 12.721 99.6158 12.721C98.303 12.721 97.2018 13.1913 96.3279 14.1279C95.4109 15.0449 94.9524 16.1617 94.9524 17.4745V25.2337C94.9524 25.2925 94.9054 25.3395 94.8466 25.3395H91.7665C91.7077 25.3395 91.6606 25.2925 91.6606 25.2337V17.4745C91.6606 15.3035 92.4366 13.4381 93.9923 11.8824C95.5677 10.3462 97.4409 9.57812 99.6119 9.57812C101.783 9.57812 103.656 10.3462 105.231 11.8824C106.787 13.4381 107.563 15.2996 107.563 17.4745V29.6346C107.563 29.6933 107.516 29.7404 107.457 29.7404H104.377C104.318 29.7404 104.271 29.6933 104.271 29.6346V17.4745H104.279Z" fill="white"/>
<path d="M133.847 25.3356C133.78 25.3356 133.729 25.2808 133.729 25.2181V15.7111C133.729 15.3309 133.643 14.9704 133.474 14.6177C133.306 14.2689 133.086 13.9711 132.816 13.7203C132.546 13.4695 132.228 13.2736 131.86 13.1207C131.491 12.9718 131.115 12.8974 130.739 12.8974C129.963 12.8974 129.305 13.1717 128.764 13.7203C128.227 14.2689 127.957 14.9312 127.957 15.7071V25.2141C127.957 25.2808 127.902 25.3317 127.839 25.3317H124.641C124.575 25.3317 124.524 25.2768 124.524 25.2141V15.7071C124.524 14.9312 124.261 14.2689 123.732 13.7203C123.203 13.1717 122.553 12.8974 121.773 12.8974C121.373 12.8974 120.997 12.9718 120.636 13.1207C120.276 13.2696 119.958 13.4695 119.68 13.7203C119.402 13.9711 119.175 14.2689 119.006 14.6177C118.838 14.9665 118.751 15.3309 118.751 15.7111V25.2181C118.751 25.2847 118.696 25.3356 118.634 25.3356H115.554C115.487 25.3356 115.436 25.2808 115.436 25.2181V15.7111C115.436 14.8724 115.605 14.0808 115.945 13.3323C116.282 12.5838 116.749 11.9333 117.337 11.3729C117.924 10.8165 118.602 10.3776 119.371 10.0562C120.139 9.7388 120.942 9.57812 121.777 9.57812C122.674 9.57812 123.505 9.75447 124.273 10.0993C125.002 10.4324 125.637 10.8752 126.177 11.4317C126.224 11.4787 126.295 11.4787 126.342 11.4317C126.883 10.8752 127.518 10.4285 128.247 10.0993C129.015 9.75055 129.845 9.57812 130.743 9.57812C131.558 9.57812 132.342 9.73096 133.09 10.0405C133.839 10.3501 134.501 10.7734 135.077 11.3102C135.653 11.8471 136.119 12.478 136.468 13.1952C136.817 13.9123 137.013 14.6804 137.052 15.4994V25.2181C137.052 25.2847 136.997 25.3356 136.935 25.3356H133.854H133.847Z" fill="white"/>
</g>
<defs>
<clipPath id="clip0_35_5796">
<rect width="220.346" height="50" fill="white"/>
</clipPath>
</defs>
</svg>
