<svg width="1512" height="1069" viewBox="0 0 1512 1069" fill="none" xmlns="http://www.w3.org/2000/svg">
<mask id="mask0_96_2326" style="mask-type:alpha" maskUnits="userSpaceOnUse" x="0" y="0" width="1512" height="1069">
<rect width="1512" height="1068.92" fill="black"/>
</mask>
<g mask="url(#mask0_96_2326)">
<circle cx="706.795" cy="809.582" r="3.09622" fill="white" fill-opacity="0.3"/>
<circle cx="941.707" cy="165.081" r="2.0676" fill="white" fill-opacity="0.8"/>
<circle cx="880.325" cy="373.957" r="2.88751" fill="white" fill-opacity="0.5"/>
<circle cx="238.83" cy="245.095" r="2.7202" fill="white" fill-opacity="0.8"/>
<circle cx="1284.77" cy="373.013" r="1.94364" fill="white" fill-opacity="0.8"/>
<circle cx="120.134" cy="709.814" r="1.99421" fill="white" fill-opacity="0.8"/>
<circle cx="1015.34" cy="101.435" r="2.76943" fill="white" fill-opacity="0.8"/>
<circle cx="840.189" cy="501.123" r="1.35978" fill="white" fill-opacity="0.3"/>
<circle cx="684.609" cy="227.574" r="2.35898" fill="white" fill-opacity="0.8"/>
<circle cx="173.575" cy="1020.64" r="1.81296" fill="white" fill-opacity="0.3"/>
<circle cx="1402.81" cy="375.226" r="2.01236" fill="white" fill-opacity="0.5"/>
<circle cx="1301.96" cy="1061.56" r="1.97458" fill="white" fill-opacity="0.5"/>
<circle cx="1124.25" cy="973.938" r="2.29494" fill="white" fill-opacity="0.6"/>
<circle cx="788.752" cy="936.581" r="1.40078" fill="white" fill-opacity="0.5"/>
<circle cx="502.911" cy="601.407" r="2.97773" fill="white" fill-opacity="0.8"/>
<circle cx="133.964" cy="191.707" r="2.95517" fill="white" fill-opacity="0.5"/>
<circle cx="1399.33" cy="813.598" r="2.82235" fill="white" fill-opacity="0.8"/>
<circle cx="440.172" cy="817.506" r="2.441" fill="white" fill-opacity="0.3"/>
<circle cx="486.731" cy="701.052" r="1.81219" fill="white" fill-opacity="0.8"/>
<circle cx="1365.81" cy="814.395" r="1.47507" fill="white" fill-opacity="0.3"/>
<circle cx="849.418" cy="124.269" r="2.00933" fill="white" fill-opacity="0.5"/>
<circle cx="1385.83" cy="293.897" r="2.18953" fill="white" fill-opacity="0.6"/>
<circle cx="356.154" cy="634.823" r="2.0749" fill="white" fill-opacity="0.5"/>
<circle cx="1474.39" cy="1000.2" r="2.81518" fill="white" fill-opacity="0.5"/>
<circle cx="1266.61" cy="929.693" r="3.09235" fill="white" fill-opacity="0.5"/>
<circle cx="1021.33" cy="1023.31" r="2.33306" fill="white" fill-opacity="0.5"/>
<circle cx="45.716" cy="206.415" r="2.64817" fill="white" fill-opacity="0.5"/>
<circle cx="1393.89" cy="456.391" r="1.67044" fill="white" fill-opacity="0.8"/>
<circle cx="416.412" cy="92.3615" r="2.27531" fill="white" fill-opacity="0.8"/>
<circle cx="594.227" cy="184.38" r="2.06253" fill="white" fill-opacity="0.8"/>
<circle cx="252.905" cy="357.836" r="1.78081" fill="white" fill-opacity="0.6"/>
<circle cx="704.547" cy="725.827" r="2.99273" fill="white" fill-opacity="0.5"/>
<circle cx="1046.51" cy="469.357" r="1.76704" fill="white" fill-opacity="0.3"/>
<circle cx="1050" cy="453.547" r="3.11591" fill="white" fill-opacity="0.3"/>
<circle cx="228.597" cy="786.104" r="3.21225" fill="white" fill-opacity="0.5"/>
<circle cx="1241.95" cy="283.004" r="2.02062" fill="white" fill-opacity="0.5"/>
<circle cx="1321.41" cy="1014.52" r="2.12202" fill="white" fill-opacity="0.5"/>
<circle cx="1005.01" cy="3.16778" r="3.16778" fill="white" fill-opacity="0.8"/>
<circle cx="1332.31" cy="304.728" r="2.29544" fill="white" fill-opacity="0.8"/>
<circle cx="923.893" cy="773.58" r="1.41312" fill="white" fill-opacity="0.5"/>
<circle cx="1046.97" cy="952.426" r="2.23162" fill="white" fill-opacity="0.3"/>
<circle cx="1272.17" cy="660.697" r="2.2104" fill="white" fill-opacity="0.5"/>
<circle cx="240.598" cy="474.223" r="2.34347" fill="white" fill-opacity="0.8"/>
<circle cx="1406.23" cy="440.848" r="1.1414" fill="white" fill-opacity="0.6"/>
<circle cx="1274.88" cy="122.899" r="2.78382" fill="white" fill-opacity="0.5"/>
<circle cx="439.375" cy="730.913" r="1.64413" fill="white" fill-opacity="0.8"/>
<circle cx="876.869" cy="228.937" r="1.57685" fill="white" fill-opacity="0.5"/>
<circle cx="101.842" cy="517.785" r="3.00657" fill="white" fill-opacity="0.6"/>
<circle cx="809.589" cy="502.697" r="2.93374" fill="white" fill-opacity="0.5"/>
<circle cx="427.211" cy="450.636" r="2.34986" fill="white" fill-opacity="0.8"/>
<circle cx="1012.97" cy="358.601" r="2.546" fill="white" fill-opacity="0.3"/>
<circle cx="1268.48" cy="1034.52" r="2.81635" fill="white" fill-opacity="0.8"/>
<circle cx="244.897" cy="780.954" r="2.35231" fill="white" fill-opacity="0.5"/>
<circle cx="1404.24" cy="599.728" r="1.29816" fill="white" fill-opacity="0.5"/>
<circle cx="1441.49" cy="386.03" r="2.09124" fill="white" fill-opacity="0.8"/>
<circle cx="349.304" cy="808.145" r="1.65919" fill="white" fill-opacity="0.5"/>
<circle cx="850.947" cy="443.244" r="1.39287" fill="white" fill-opacity="0.3"/>
<circle cx="797.535" cy="681.54" r="1.60399" fill="white" fill-opacity="0.6"/>
<circle cx="679.913" cy="259.341" r="1.95186" fill="white" fill-opacity="0.3"/>
<circle cx="879.148" cy="297.708" r="1.7104" fill="white" fill-opacity="0.6"/>
<circle cx="1279.48" cy="159.666" r="3.08718" fill="white" fill-opacity="0.8"/>
<circle cx="234.627" cy="884.365" r="2.80753" fill="white" fill-opacity="0.5"/>
<circle cx="492.513" cy="837.674" r="1.15972" fill="white" fill-opacity="0.3"/>
<circle cx="1440.71" cy="794.922" r="1.30559" fill="white" fill-opacity="0.8"/>
<circle cx="47.9598" cy="777.059" r="2.74688" fill="white" fill-opacity="0.3"/>
<circle cx="80.067" cy="294.388" r="2.68073" fill="white" fill-opacity="0.8"/>
<circle cx="882.661" cy="158.661" r="2.66102" fill="white" fill-opacity="0.8"/>
<circle cx="395.999" cy="367.945" r="1.16619" fill="white" fill-opacity="0.6"/>
<circle cx="1131.43" cy="691.559" r="3.04325" fill="white" fill-opacity="0.8"/>
<circle cx="1457.63" cy="369.99" r="3.21046" fill="white" fill-opacity="0.8"/>
<circle cx="1492.9" cy="791.343" r="2.01668" fill="white" fill-opacity="0.5"/>
<circle cx="769.701" cy="799.56" r="1.65396" fill="white" fill-opacity="0.5"/>
<circle cx="365.371" cy="99.2328" r="2.71197" fill="white" fill-opacity="0.8"/>
<circle cx="1026.14" cy="335.305" r="2.84433" fill="white" fill-opacity="0.8"/>
</g>
</svg>
