<svg width="1512" height="5156" viewBox="0 0 1512 5156" fill="none" xmlns="http://www.w3.org/2000/svg">
<circle cx="406.795" cy="803.582" r="3.09622" fill="white" fill-opacity="0.3"/>
<circle cx="611.139" cy="1477.66" r="1.52816" fill="white" fill-opacity="0.3"/>
<circle cx="1275.26" cy="1376.05" r="2.87537" fill="white" fill-opacity="0.5"/>
<circle cx="641.707" cy="159.08" r="2.0676" fill="white" fill-opacity="0.8"/>
<circle cx="580.325" cy="367.957" r="2.88751" fill="white" fill-opacity="0.5"/>
<circle cx="984.769" cy="367.013" r="1.94364" fill="white" fill-opacity="0.8"/>
<circle cx="193.015" cy="1752.34" r="1.66182" fill="white" fill-opacity="0.8"/>
<circle cx="1432.51" cy="42.5845" r="1.39704" fill="white" fill-opacity="0.5"/>
<circle cx="1242.36" cy="332.899" r="2.14884" fill="white" fill-opacity="0.8"/>
<circle cx="715.336" cy="95.4354" r="2.76943" fill="white" fill-opacity="0.8"/>
<circle cx="540.189" cy="495.123" r="1.35978" fill="white" fill-opacity="0.3"/>
<circle cx="384.609" cy="221.575" r="2.35898" fill="white" fill-opacity="0.8"/>
<circle cx="720.167" cy="1397.94" r="1.16646" fill="white" fill-opacity="0.3"/>
<circle cx="1102.81" cy="369.226" r="2.01236" fill="white" fill-opacity="0.5"/>
<circle cx="1001.96" cy="1055.56" r="1.97458" fill="white" fill-opacity="0.5"/>
<circle cx="824.252" cy="967.938" r="2.29494" fill="white" fill-opacity="0.6"/>
<circle cx="488.752" cy="930.581" r="1.40078" fill="white" fill-opacity="0.5"/>
<circle cx="202.911" cy="595.407" r="2.97773" fill="white" fill-opacity="0.8"/>
<circle cx="1099.33" cy="807.598" r="2.82235" fill="white" fill-opacity="0.8"/>
<circle cx="1305.05" cy="1699.69" r="2.6362" fill="white" fill-opacity="0.6"/>
<circle cx="584.054" cy="1652.2" r="2.32696" fill="white" fill-opacity="0.5"/>
<circle cx="140.172" cy="811.506" r="2.441" fill="white" fill-opacity="0.3"/>
<circle cx="668.939" cy="1619.11" r="1.41548" fill="white" fill-opacity="0.3"/>
<circle cx="186.731" cy="695.052" r="1.81219" fill="white" fill-opacity="0.8"/>
<circle cx="1065.81" cy="808.396" r="1.47507" fill="white" fill-opacity="0.3"/>
<circle cx="1334.44" cy="866.824" r="1.99116" fill="white" fill-opacity="0.8"/>
<circle cx="549.418" cy="118.269" r="2.00933" fill="white" fill-opacity="0.5"/>
<circle cx="1085.83" cy="287.898" r="2.18953" fill="white" fill-opacity="0.6"/>
<circle cx="56.1545" cy="628.823" r="2.0749" fill="white" fill-opacity="0.5"/>
<circle cx="1361.79" cy="126.3" r="1.46061" fill="white" fill-opacity="0.5"/>
<circle cx="1174.39" cy="994.198" r="2.81518" fill="white" fill-opacity="0.5"/>
<circle cx="966.613" cy="923.693" r="3.09235" fill="white" fill-opacity="0.5"/>
<circle cx="1456.69" cy="1345.14" r="1.98808" fill="white" fill-opacity="0.8"/>
<circle cx="721.334" cy="1017.31" r="2.33306" fill="white" fill-opacity="0.5"/>
<circle cx="1093.89" cy="450.391" r="1.67044" fill="white" fill-opacity="0.8"/>
<circle cx="1242.8" cy="770.902" r="2.58979" fill="white" fill-opacity="0.8"/>
<circle cx="116.412" cy="86.3612" r="2.27531" fill="white" fill-opacity="0.8"/>
<circle cx="1397.59" cy="280.073" r="2.94557" fill="white" fill-opacity="0.6"/>
<circle cx="294.227" cy="178.38" r="2.06253" fill="white" fill-opacity="0.8"/>
<circle cx="1484.45" cy="510.642" r="1.86422" fill="white" fill-opacity="0.6"/>
<circle cx="137.498" cy="1231.38" r="1.91239" fill="white" fill-opacity="0.6"/>
<circle cx="1494.35" cy="1644.47" r="3.17868" fill="white" fill-opacity="0.8"/>
<circle cx="404.547" cy="719.827" r="2.99273" fill="white" fill-opacity="0.5"/>
<circle cx="746.507" cy="463.357" r="1.76704" fill="white" fill-opacity="0.3"/>
<circle cx="750.001" cy="447.547" r="3.11591" fill="white" fill-opacity="0.3"/>
<circle cx="1495.39" cy="594.504" r="2.07397" fill="white" fill-opacity="0.5"/>
<circle cx="941.947" cy="277.004" r="2.02062" fill="white" fill-opacity="0.5"/>
<circle cx="1021.41" cy="1008.52" r="2.12202" fill="white" fill-opacity="0.5"/>
<circle cx="705.01" cy="-2.83222" r="3.16778" fill="white" fill-opacity="0.8"/>
<circle cx="1321.87" cy="1394.78" r="2.29729" fill="white" fill-opacity="0.8"/>
<circle cx="1032.31" cy="298.727" r="2.29544" fill="white" fill-opacity="0.8"/>
<circle cx="623.893" cy="767.58" r="1.41312" fill="white" fill-opacity="0.5"/>
<circle cx="746.972" cy="946.426" r="2.23162" fill="white" fill-opacity="0.3"/>
<circle cx="972.166" cy="654.697" r="2.2104" fill="white" fill-opacity="0.5"/>
<circle cx="1347.84" cy="1163.35" r="2.52268" fill="white" fill-opacity="0.8"/>
<circle cx="184.06" cy="1316.55" r="1.28572" fill="white" fill-opacity="0.5"/>
<circle cx="594.955" cy="1534.4" r="2.50295" fill="white" fill-opacity="0.8"/>
<circle cx="1106.23" cy="434.847" r="1.1414" fill="white" fill-opacity="0.6"/>
<circle cx="974.884" cy="116.899" r="2.78382" fill="white" fill-opacity="0.5"/>
<circle cx="139.375" cy="724.913" r="1.64413" fill="white" fill-opacity="0.8"/>
<circle cx="576.869" cy="222.937" r="1.57685" fill="white" fill-opacity="0.5"/>
<circle cx="509.589" cy="496.697" r="2.93374" fill="white" fill-opacity="0.5"/>
<circle cx="127.211" cy="444.636" r="2.34986" fill="white" fill-opacity="0.8"/>
<circle cx="712.968" cy="352.601" r="2.546" fill="white" fill-opacity="0.3"/>
<circle cx="79.1245" cy="1730.68" r="1.4507" fill="white" fill-opacity="0.5"/>
<circle cx="968.482" cy="1028.52" r="2.81635" fill="white" fill-opacity="0.8"/>
<circle cx="240.916" cy="1332.65" r="2.37402" fill="white" fill-opacity="0.5"/>
<circle cx="1344.01" cy="1361.15" r="2.98918" fill="white" fill-opacity="0.5"/>
<circle cx="1213.28" cy="1693.72" r="3.09643" fill="white" fill-opacity="0.6"/>
<circle cx="1104.24" cy="593.728" r="1.29816" fill="white" fill-opacity="0.5"/>
<circle cx="1141.49" cy="380.03" r="2.09124" fill="white" fill-opacity="0.8"/>
<circle cx="49.3042" cy="802.145" r="1.65919" fill="white" fill-opacity="0.5"/>
<circle cx="1246.83" cy="1598.57" r="2.32406" fill="white" fill-opacity="0.5"/>
<circle cx="255.295" cy="1458.57" r="1.73867" fill="white" fill-opacity="0.8"/>
<circle cx="550.947" cy="437.244" r="1.39287" fill="white" fill-opacity="0.3"/>
<circle cx="1254.83" cy="317.488" r="1.75144" fill="white" fill-opacity="0.8"/>
<circle cx="497.535" cy="675.54" r="1.60399" fill="white" fill-opacity="0.6"/>
<circle cx="379.913" cy="253.341" r="1.95186" fill="white" fill-opacity="0.3"/>
<circle cx="579.148" cy="291.707" r="1.7104" fill="white" fill-opacity="0.6"/>
<circle cx="979.478" cy="153.665" r="3.08718" fill="white" fill-opacity="0.8"/>
<circle cx="995.161" cy="1436.99" r="1.61081" fill="white" fill-opacity="0.5"/>
<circle cx="192.513" cy="831.674" r="1.15972" fill="white" fill-opacity="0.3"/>
<circle cx="1140.71" cy="788.922" r="1.30559" fill="white" fill-opacity="0.8"/>
<circle cx="1422.24" cy="892.422" r="1.85049" fill="white" fill-opacity="0.5"/>
<circle cx="1407.81" cy="376.086" r="2.43714" fill="white" fill-opacity="0.8"/>
<circle cx="368.706" cy="1632.04" r="1.46979" fill="white" fill-opacity="0.8"/>
<circle cx="145.282" cy="1507.28" r="1.11638" fill="white" fill-opacity="0.8"/>
<circle cx="1383.56" cy="1833.97" r="1.78626" fill="white" fill-opacity="0.6"/>
<circle cx="465.558" cy="1325.64" r="1.80106" fill="white" fill-opacity="0.8"/>
<circle cx="582.661" cy="152.661" r="2.66102" fill="white" fill-opacity="0.8"/>
<circle cx="819.416" cy="1244.09" r="1.74898" fill="white" fill-opacity="0.5"/>
<circle cx="95.9992" cy="361.945" r="1.16619" fill="white" fill-opacity="0.6"/>
<circle cx="831.435" cy="685.559" r="3.04325" fill="white" fill-opacity="0.8"/>
<circle cx="1157.63" cy="363.99" r="3.21046" fill="white" fill-opacity="0.8"/>
<circle cx="1192.9" cy="785.343" r="2.01668" fill="white" fill-opacity="0.5"/>
<circle cx="469.701" cy="793.56" r="1.65396" fill="white" fill-opacity="0.5"/>
<circle cx="65.3711" cy="93.2325" r="2.71197" fill="white" fill-opacity="0.8"/>
<circle cx="726.135" cy="329.305" r="2.84433" fill="white" fill-opacity="0.8"/>
<circle cx="610.546" cy="1605.76" r="3.08014" fill="white" fill-opacity="0.8"/>
<circle cx="406.795" cy="2506.58" r="3.09622" fill="white" fill-opacity="0.3"/>
<circle cx="611.139" cy="3180.66" r="1.52816" fill="white" fill-opacity="0.3"/>
<circle cx="1275.26" cy="3079.05" r="2.87537" fill="white" fill-opacity="0.5"/>
<circle cx="641.707" cy="1862.08" r="2.0676" fill="white" fill-opacity="0.8"/>
<circle cx="580.325" cy="2070.96" r="2.88751" fill="white" fill-opacity="0.5"/>
<circle cx="984.769" cy="2070.01" r="1.94364" fill="white" fill-opacity="0.8"/>
<circle cx="193.015" cy="3455.34" r="1.66182" fill="white" fill-opacity="0.8"/>
<circle cx="1432.51" cy="1745.59" r="1.39704" fill="white" fill-opacity="0.5"/>
<circle cx="1242.36" cy="2035.9" r="2.14884" fill="white" fill-opacity="0.8"/>
<circle cx="715.336" cy="1798.44" r="2.76943" fill="white" fill-opacity="0.8"/>
<circle cx="540.189" cy="2198.12" r="1.35978" fill="white" fill-opacity="0.3"/>
<circle cx="384.609" cy="1924.57" r="2.35898" fill="white" fill-opacity="0.8"/>
<circle cx="720.167" cy="3100.94" r="1.16646" fill="white" fill-opacity="0.3"/>
<circle cx="1102.81" cy="2072.23" r="2.01236" fill="white" fill-opacity="0.5"/>
<circle cx="1001.96" cy="2758.56" r="1.97458" fill="white" fill-opacity="0.5"/>
<circle cx="824.252" cy="2670.94" r="2.29494" fill="white" fill-opacity="0.6"/>
<circle cx="488.752" cy="2633.58" r="1.40078" fill="white" fill-opacity="0.5"/>
<circle cx="202.911" cy="2298.41" r="2.97773" fill="white" fill-opacity="0.8"/>
<circle cx="1099.33" cy="2510.6" r="2.82235" fill="white" fill-opacity="0.8"/>
<circle cx="1305.05" cy="3402.69" r="2.6362" fill="white" fill-opacity="0.6"/>
<circle cx="584.054" cy="3355.2" r="2.32696" fill="white" fill-opacity="0.5"/>
<circle cx="140.172" cy="2514.51" r="2.441" fill="white" fill-opacity="0.3"/>
<circle cx="668.939" cy="3322.11" r="1.41548" fill="white" fill-opacity="0.3"/>
<circle cx="186.731" cy="2398.05" r="1.81219" fill="white" fill-opacity="0.8"/>
<circle cx="1065.81" cy="2511.4" r="1.47507" fill="white" fill-opacity="0.3"/>
<circle cx="1334.44" cy="2569.82" r="1.99116" fill="white" fill-opacity="0.8"/>
<circle cx="549.418" cy="1821.27" r="2.00933" fill="white" fill-opacity="0.5"/>
<circle cx="1085.83" cy="1990.9" r="2.18953" fill="white" fill-opacity="0.6"/>
<circle cx="56.1545" cy="2331.82" r="2.0749" fill="white" fill-opacity="0.5"/>
<circle cx="1361.79" cy="1829.3" r="1.46061" fill="white" fill-opacity="0.5"/>
<circle cx="1174.39" cy="2697.2" r="2.81518" fill="white" fill-opacity="0.5"/>
<circle cx="966.613" cy="2626.69" r="3.09235" fill="white" fill-opacity="0.5"/>
<circle cx="1456.69" cy="3048.14" r="1.98808" fill="white" fill-opacity="0.8"/>
<circle cx="721.334" cy="2720.31" r="2.33306" fill="white" fill-opacity="0.5"/>
<circle cx="1093.89" cy="2153.39" r="1.67044" fill="white" fill-opacity="0.8"/>
<circle cx="1242.8" cy="2473.9" r="2.58979" fill="white" fill-opacity="0.8"/>
<circle cx="116.412" cy="1789.36" r="2.27531" fill="white" fill-opacity="0.8"/>
<circle cx="1397.59" cy="1983.07" r="2.94557" fill="white" fill-opacity="0.6"/>
<circle cx="294.227" cy="1881.38" r="2.06253" fill="white" fill-opacity="0.8"/>
<circle cx="1484.45" cy="2213.64" r="1.86422" fill="white" fill-opacity="0.6"/>
<circle cx="137.498" cy="2934.38" r="1.91239" fill="white" fill-opacity="0.6"/>
<circle cx="1494.35" cy="3347.47" r="3.17868" fill="white" fill-opacity="0.8"/>
<circle cx="404.547" cy="2422.83" r="2.99273" fill="white" fill-opacity="0.5"/>
<circle cx="746.507" cy="2166.36" r="1.76704" fill="white" fill-opacity="0.3"/>
<circle cx="750.001" cy="2150.55" r="3.11591" fill="white" fill-opacity="0.3"/>
<circle cx="1495.39" cy="2297.5" r="2.07397" fill="white" fill-opacity="0.5"/>
<circle cx="941.947" cy="1980" r="2.02062" fill="white" fill-opacity="0.5"/>
<circle cx="1021.41" cy="2711.52" r="2.12202" fill="white" fill-opacity="0.5"/>
<circle cx="705.01" cy="1700.17" r="3.16778" fill="white" fill-opacity="0.8"/>
<circle cx="1321.87" cy="3097.78" r="2.29729" fill="white" fill-opacity="0.8"/>
<circle cx="1032.31" cy="2001.73" r="2.29544" fill="white" fill-opacity="0.8"/>
<circle cx="623.893" cy="2470.58" r="1.41312" fill="white" fill-opacity="0.5"/>
<circle cx="746.972" cy="2649.43" r="2.23162" fill="white" fill-opacity="0.3"/>
<circle cx="972.166" cy="2357.7" r="2.2104" fill="white" fill-opacity="0.5"/>
<circle cx="1347.84" cy="2866.35" r="2.52268" fill="white" fill-opacity="0.8"/>
<circle cx="184.06" cy="3019.55" r="1.28572" fill="white" fill-opacity="0.5"/>
<circle cx="594.955" cy="3237.4" r="2.50295" fill="white" fill-opacity="0.8"/>
<circle cx="1106.23" cy="2137.85" r="1.1414" fill="white" fill-opacity="0.6"/>
<circle cx="974.884" cy="1819.9" r="2.78382" fill="white" fill-opacity="0.5"/>
<circle cx="139.375" cy="2427.91" r="1.64413" fill="white" fill-opacity="0.8"/>
<circle cx="576.869" cy="1925.94" r="1.57685" fill="white" fill-opacity="0.5"/>
<circle cx="509.589" cy="2199.7" r="2.93374" fill="white" fill-opacity="0.5"/>
<circle cx="127.211" cy="2147.64" r="2.34986" fill="white" fill-opacity="0.8"/>
<circle cx="712.968" cy="2055.6" r="2.546" fill="white" fill-opacity="0.3"/>
<circle cx="79.1245" cy="3433.68" r="1.4507" fill="white" fill-opacity="0.5"/>
<circle cx="968.482" cy="2731.52" r="2.81635" fill="white" fill-opacity="0.8"/>
<circle cx="240.916" cy="3035.65" r="2.37402" fill="white" fill-opacity="0.5"/>
<circle cx="1344.01" cy="3064.15" r="2.98918" fill="white" fill-opacity="0.5"/>
<circle cx="1213.28" cy="3396.72" r="3.09643" fill="white" fill-opacity="0.6"/>
<circle cx="1104.24" cy="2296.73" r="1.29816" fill="white" fill-opacity="0.5"/>
<circle cx="1141.49" cy="2083.03" r="2.09124" fill="white" fill-opacity="0.8"/>
<circle cx="49.3042" cy="2505.15" r="1.65919" fill="white" fill-opacity="0.5"/>
<circle cx="1246.83" cy="3301.57" r="2.32406" fill="white" fill-opacity="0.5"/>
<circle cx="255.295" cy="3161.57" r="1.73867" fill="white" fill-opacity="0.8"/>
<circle cx="550.947" cy="2140.24" r="1.39287" fill="white" fill-opacity="0.3"/>
<circle cx="1254.83" cy="2020.49" r="1.75144" fill="white" fill-opacity="0.8"/>
<circle cx="497.535" cy="2378.54" r="1.60399" fill="white" fill-opacity="0.6"/>
<circle cx="379.913" cy="1956.34" r="1.95186" fill="white" fill-opacity="0.3"/>
<circle cx="579.148" cy="1994.71" r="1.7104" fill="white" fill-opacity="0.6"/>
<circle cx="979.478" cy="1856.67" r="3.08718" fill="white" fill-opacity="0.8"/>
<circle cx="995.161" cy="3139.99" r="1.61081" fill="white" fill-opacity="0.5"/>
<circle cx="192.513" cy="2534.67" r="1.15972" fill="white" fill-opacity="0.3"/>
<circle cx="1140.71" cy="2491.92" r="1.30559" fill="white" fill-opacity="0.8"/>
<circle cx="1422.24" cy="2595.42" r="1.85049" fill="white" fill-opacity="0.5"/>
<circle cx="1407.81" cy="2079.09" r="2.43714" fill="white" fill-opacity="0.8"/>
<circle cx="368.706" cy="3335.04" r="1.46979" fill="white" fill-opacity="0.8"/>
<circle cx="145.282" cy="3210.28" r="1.11638" fill="white" fill-opacity="0.8"/>
<circle cx="1383.56" cy="3536.97" r="1.78626" fill="white" fill-opacity="0.6"/>
<circle cx="465.558" cy="3028.64" r="1.80106" fill="white" fill-opacity="0.8"/>
<circle cx="582.661" cy="1855.66" r="2.66102" fill="white" fill-opacity="0.8"/>
<circle cx="819.416" cy="2947.09" r="1.74898" fill="white" fill-opacity="0.5"/>
<circle cx="95.9992" cy="2064.95" r="1.16619" fill="white" fill-opacity="0.6"/>
<circle cx="831.435" cy="2388.56" r="3.04325" fill="white" fill-opacity="0.8"/>
<circle cx="1157.63" cy="2066.99" r="3.21046" fill="white" fill-opacity="0.8"/>
<circle cx="1192.9" cy="2488.34" r="2.01668" fill="white" fill-opacity="0.5"/>
<circle cx="469.701" cy="2496.56" r="1.65396" fill="white" fill-opacity="0.5"/>
<circle cx="1383.48" cy="1698.7" r="1.70261" fill="white" fill-opacity="0.8"/>
<circle cx="65.3711" cy="1796.23" r="2.71197" fill="white" fill-opacity="0.8"/>
<circle cx="726.135" cy="2032.31" r="2.84433" fill="white" fill-opacity="0.8"/>
<circle cx="610.546" cy="3308.76" r="3.08014" fill="white" fill-opacity="0.8"/>
<circle cx="406.795" cy="4209.58" r="3.09622" fill="white" fill-opacity="0.3"/>
<circle cx="611.139" cy="4883.66" r="1.52816" fill="white" fill-opacity="0.3"/>
<circle cx="1275.26" cy="4782.05" r="2.87537" fill="white" fill-opacity="0.5"/>
<circle cx="641.707" cy="3565.08" r="2.0676" fill="white" fill-opacity="0.8"/>
<circle cx="580.325" cy="3773.96" r="2.88751" fill="white" fill-opacity="0.5"/>
<circle cx="984.769" cy="3773.01" r="1.94364" fill="white" fill-opacity="0.8"/>
<circle cx="1432.51" cy="3448.58" r="1.39704" fill="white" fill-opacity="0.5"/>
<circle cx="1242.36" cy="3738.9" r="2.14884" fill="white" fill-opacity="0.8"/>
<circle cx="715.336" cy="3501.44" r="2.76943" fill="white" fill-opacity="0.8"/>
<circle cx="540.189" cy="3901.12" r="1.35978" fill="white" fill-opacity="0.3"/>
<circle cx="384.609" cy="3627.57" r="2.35898" fill="white" fill-opacity="0.8"/>
<circle cx="720.167" cy="4803.94" r="1.16646" fill="white" fill-opacity="0.3"/>
<circle cx="1102.81" cy="3775.23" r="2.01236" fill="white" fill-opacity="0.5"/>
<circle cx="1001.96" cy="4461.56" r="1.97458" fill="white" fill-opacity="0.5"/>
<circle cx="824.252" cy="4373.94" r="2.29494" fill="white" fill-opacity="0.6"/>
<circle cx="488.752" cy="4336.58" r="1.40078" fill="white" fill-opacity="0.5"/>
<circle cx="202.911" cy="4001.41" r="2.97773" fill="white" fill-opacity="0.8"/>
<circle cx="1099.33" cy="4213.6" r="2.82235" fill="white" fill-opacity="0.8"/>
<circle cx="1305.05" cy="5105.69" r="2.6362" fill="white" fill-opacity="0.6"/>
<circle cx="584.054" cy="5058.2" r="2.32696" fill="white" fill-opacity="0.5"/>
<circle cx="140.172" cy="4217.51" r="2.441" fill="white" fill-opacity="0.3"/>
<circle cx="668.939" cy="5025.11" r="1.41548" fill="white" fill-opacity="0.3"/>
<circle cx="186.731" cy="4101.05" r="1.81219" fill="white" fill-opacity="0.8"/>
<circle cx="1065.81" cy="4214.4" r="1.47507" fill="white" fill-opacity="0.3"/>
<circle cx="1334.44" cy="4272.82" r="1.99116" fill="white" fill-opacity="0.8"/>
<circle cx="549.418" cy="3524.27" r="2.00933" fill="white" fill-opacity="0.5"/>
<circle cx="1085.83" cy="3693.9" r="2.18953" fill="white" fill-opacity="0.6"/>
<circle cx="56.1545" cy="4034.82" r="2.0749" fill="white" fill-opacity="0.5"/>
<circle cx="1361.79" cy="3532.3" r="1.46061" fill="white" fill-opacity="0.5"/>
<circle cx="1174.39" cy="4400.2" r="2.81518" fill="white" fill-opacity="0.5"/>
<circle cx="966.613" cy="4329.69" r="3.09235" fill="white" fill-opacity="0.5"/>
<circle cx="1456.69" cy="4751.14" r="1.98808" fill="white" fill-opacity="0.8"/>
<circle cx="721.334" cy="4423.31" r="2.33306" fill="white" fill-opacity="0.5"/>
<circle cx="1093.89" cy="3856.39" r="1.67044" fill="white" fill-opacity="0.8"/>
<circle cx="1242.8" cy="4176.9" r="2.58979" fill="white" fill-opacity="0.8"/>
<circle cx="116.412" cy="3492.36" r="2.27531" fill="white" fill-opacity="0.8"/>
<circle cx="1397.59" cy="3686.07" r="2.94557" fill="white" fill-opacity="0.6"/>
<circle cx="294.227" cy="3584.38" r="2.06253" fill="white" fill-opacity="0.8"/>
<circle cx="1484.45" cy="3916.64" r="1.86422" fill="white" fill-opacity="0.6"/>
<circle cx="137.498" cy="4637.38" r="1.91239" fill="white" fill-opacity="0.6"/>
<circle cx="1494.35" cy="5050.47" r="3.17868" fill="white" fill-opacity="0.8"/>
<circle cx="404.547" cy="4125.83" r="2.99273" fill="white" fill-opacity="0.5"/>
<circle cx="746.507" cy="3869.36" r="1.76704" fill="white" fill-opacity="0.3"/>
<circle cx="750.001" cy="3853.55" r="3.11591" fill="white" fill-opacity="0.3"/>
<circle cx="1495.39" cy="4000.5" r="2.07397" fill="white" fill-opacity="0.5"/>
<circle cx="941.947" cy="3683" r="2.02062" fill="white" fill-opacity="0.5"/>
<circle cx="1021.41" cy="4414.52" r="2.12202" fill="white" fill-opacity="0.5"/>
<circle cx="705.01" cy="3403.17" r="3.16778" fill="white" fill-opacity="0.8"/>
<circle cx="1321.87" cy="4800.78" r="2.29729" fill="white" fill-opacity="0.8"/>
<circle cx="1032.31" cy="3704.73" r="2.29544" fill="white" fill-opacity="0.8"/>
<circle cx="623.893" cy="4173.58" r="1.41312" fill="white" fill-opacity="0.5"/>
<circle cx="746.972" cy="4352.43" r="2.23162" fill="white" fill-opacity="0.3"/>
<circle cx="972.166" cy="4060.7" r="2.2104" fill="white" fill-opacity="0.5"/>
<circle cx="1347.84" cy="4569.35" r="2.52268" fill="white" fill-opacity="0.8"/>
<circle cx="184.06" cy="4722.55" r="1.28572" fill="white" fill-opacity="0.5"/>
<circle cx="594.955" cy="4940.4" r="2.50295" fill="white" fill-opacity="0.8"/>
<circle cx="1106.23" cy="3840.85" r="1.1414" fill="white" fill-opacity="0.6"/>
<circle cx="974.884" cy="3522.9" r="2.78382" fill="white" fill-opacity="0.5"/>
<circle cx="139.375" cy="4130.91" r="1.64413" fill="white" fill-opacity="0.8"/>
<circle cx="576.869" cy="3628.94" r="1.57685" fill="white" fill-opacity="0.5"/>
<circle cx="509.589" cy="3902.7" r="2.93374" fill="white" fill-opacity="0.5"/>
<circle cx="127.211" cy="3850.64" r="2.34986" fill="white" fill-opacity="0.8"/>
<circle cx="712.968" cy="3758.6" r="2.546" fill="white" fill-opacity="0.3"/>
<circle cx="79.1245" cy="5136.68" r="1.4507" fill="white" fill-opacity="0.5"/>
<circle cx="968.482" cy="4434.52" r="2.81635" fill="white" fill-opacity="0.8"/>
<circle cx="240.916" cy="4738.65" r="2.37402" fill="white" fill-opacity="0.5"/>
<circle cx="1344.01" cy="4767.15" r="2.98918" fill="white" fill-opacity="0.5"/>
<circle cx="1213.28" cy="5099.72" r="3.09643" fill="white" fill-opacity="0.6"/>
<circle cx="1104.24" cy="3999.73" r="1.29816" fill="white" fill-opacity="0.5"/>
<circle cx="1141.49" cy="3786.03" r="2.09124" fill="white" fill-opacity="0.8"/>
<circle cx="49.3042" cy="4208.15" r="1.65919" fill="white" fill-opacity="0.5"/>
<circle cx="1246.83" cy="5004.57" r="2.32406" fill="white" fill-opacity="0.5"/>
<circle cx="255.295" cy="4864.57" r="1.73867" fill="white" fill-opacity="0.8"/>
<circle cx="550.947" cy="3843.24" r="1.39287" fill="white" fill-opacity="0.3"/>
<circle cx="1254.83" cy="3723.49" r="1.75144" fill="white" fill-opacity="0.8"/>
<circle cx="497.535" cy="4081.54" r="1.60399" fill="white" fill-opacity="0.6"/>
<circle cx="379.913" cy="3659.34" r="1.95186" fill="white" fill-opacity="0.3"/>
<circle cx="579.148" cy="3697.71" r="1.7104" fill="white" fill-opacity="0.6"/>
<circle cx="979.478" cy="3559.67" r="3.08718" fill="white" fill-opacity="0.8"/>
<circle cx="995.161" cy="4842.99" r="1.61081" fill="white" fill-opacity="0.5"/>
<circle cx="192.513" cy="4237.67" r="1.15972" fill="white" fill-opacity="0.3"/>
<circle cx="1140.71" cy="4194.92" r="1.30559" fill="white" fill-opacity="0.8"/>
<circle cx="1422.24" cy="4298.42" r="1.85049" fill="white" fill-opacity="0.5"/>
<circle cx="1407.81" cy="3782.09" r="2.43714" fill="white" fill-opacity="0.8"/>
<circle cx="368.706" cy="5038.04" r="1.46979" fill="white" fill-opacity="0.8"/>
<circle cx="145.282" cy="4913.28" r="1.11638" fill="white" fill-opacity="0.8"/>
<circle cx="465.558" cy="4731.64" r="1.80106" fill="white" fill-opacity="0.8"/>
<circle cx="582.661" cy="3558.66" r="2.66102" fill="white" fill-opacity="0.8"/>
<circle cx="819.416" cy="4650.09" r="1.74898" fill="white" fill-opacity="0.5"/>
<circle cx="95.9992" cy="3767.95" r="1.16619" fill="white" fill-opacity="0.6"/>
<circle cx="831.435" cy="4091.56" r="3.04325" fill="white" fill-opacity="0.8"/>
<circle cx="1157.63" cy="3769.99" r="3.21046" fill="white" fill-opacity="0.8"/>
<circle cx="1192.9" cy="4191.34" r="2.01668" fill="white" fill-opacity="0.5"/>
<circle cx="469.701" cy="4199.56" r="1.65396" fill="white" fill-opacity="0.5"/>
<circle cx="1383.48" cy="3401.7" r="1.70261" fill="white" fill-opacity="0.8"/>
<circle cx="65.3711" cy="3499.23" r="2.71197" fill="white" fill-opacity="0.8"/>
<circle cx="726.135" cy="3735.31" r="2.84433" fill="white" fill-opacity="0.8"/>
<circle cx="610.546" cy="5011.76" r="3.08014" fill="white" fill-opacity="0.8"/>
</svg>
